<svg xmlns="http://www.w3.org/2000/svg" xmlns:xlink="http://www.w3.org/1999/xlink" viewBox="0 0 1366 820"><defs><style>.cls-1{fill:none;}.cls-2{clip-path:url(#clip-path);}.cls-3{fill:url(#linear-gradient);}.cls-4{fill:url(#linear-gradient-2);}.cls-5{fill:url(#linear-gradient-3);}.cls-6{fill:url(#linear-gradient-4);}.cls-7{fill:#fff;}</style><clipPath id="clip-path" transform="translate(325 6)"><circle class="cls-1" cx="383.5" cy="383.5" r="383.5"/></clipPath><linearGradient id="linear-gradient" x1="684.9" y1="-84.74" x2="681.9" y2="867.84" gradientUnits="userSpaceOnUse"><stop offset="0.88" stop-color="#a7d7f5"/><stop offset="1" stop-color="#6697ff"/></linearGradient><linearGradient id="linear-gradient-2" x1="349.57" y1="-3.88" x2="359.6" y2="546.92" gradientUnits="userSpaceOnUse"><stop offset="0" stop-color="#0099cb"/><stop offset="0.66" stop-color="#0071bc"/></linearGradient><linearGradient id="linear-gradient-3" x1="674.71" y1="89.22" x2="685.71" y2="693.22" gradientUnits="userSpaceOnUse"><stop offset="0" stop-color="#001355"/><stop offset="0.66" stop-color="#0071bc"/></linearGradient><linearGradient id="linear-gradient-4" x1="358.51" y1="387.54" x2="356.91" y2="892.91" gradientUnits="userSpaceOnUse"><stop offset="0" stop-color="#2937e8"/><stop offset="0.93" stop-color="#00000c"/></linearGradient></defs><g id="Layer_2" data-name="Layer 2"><g id="Layer_1-2" data-name="Layer 1"><g class="cls-2"><rect class="cls-3" x="1" width="1365" height="721"/><path class="cls-4" d="M-324,218l8.5-4.51,8.5-4,4.5-13,11-17,9-19,9-13V135.43l11-11.93,6,17,7,14v36l12,4v11l9,5,11.9,7.51,16.1,14.49,18,10h9.31l23.69,5,17,15h9.07l8.93,12H-98L-80,294l11.52,8.5,9.66,11.5,20.34,11.5h19.89l14.11,7H8.92l18.58-4L36,314H46l8.53-10.5,19-17,8-7,14,6,21.41,8.5c-.41.5,13.76,0,13.76,0l19.83,14.5,14,18,15.93,6,113.07,31,64.25-36.43L381.5,303.5l5-16V272l14-15.51V238.13l22-23.63,13-24,16,15,4,23,10,21,5,19L491.7,294l12.8,10.5,14,24,233,5L772.27,314V294l16.23-16.5v-14l13-15,5-14,6-14,11.65-15,11.35-13,10.88,13,.12,15v10.22l17.88,12.78,13.12,16,10,18,11,7,9.29,9.5h10.59l15.12-15.5L948,294l12.48,9.5,15,10.5,15,13.5,12,14v14.15l18.58,7.85,19.92,3.8V614l-1365-8.47Z" transform="translate(325 6)"/><polygon class="cls-5" points="0 362 18 349 27.5 329.5 42.5 319.5 42.5 333 54.5 335.5 62.5 345.5 75 362 90.5 352.5 98.5 347.5 110 340.75 130.5 329.5 145.5 325.5 152 340.75 167.5 349.5 176 362 188 362 203 384 215 384 224.5 374.5 231.5 359.5 246 351.75 263.5 345.5 273.5 340.5 286.5 331.5 294.5 328.5 302 319.5 307.5 306.5 316 300 327 300 334.5 290.5 347 300 354.5 309.5 361 320 374 337.25 374 354 394.5 368.5 406.5 374.5 414 384 426 384 438.5 376.5 446.5 363.5 460.5 360.5 470.5 349.5 478.5 347.5 489.5 332.5 499.5 326.5 509.5 324.5 518.5 314.5 529 300 536 290.5 548.5 277.5 556.5 265.5 563.5 247.5 573.5 235.5 584 235.5 598 235.5 614.5 226.5 622.5 221.5 632.5 229.5 643.5 236.5 652.5 246.5 662.5 247.5 673.5 258.5 683 279 694 302.75 701 320 707.5 336.5 718.5 338.5 727.5 345.5 739.5 349.5 750.5 353.5 759.5 361.5 767.5 359.5 785.5 353.5 796.5 338.5 806.5 329.5 817 320 829.5 310.5 844 302.75 849.5 291.5 857.5 280.5 867.5 270.5 875.5 263.5 887.5 255.5 897.5 249.5 908 221.5 923.5 226.5 928.5 238.5 944.5 234.5 951 221.5 959.5 211.5 969.5 217.5 977.5 223.5 990.5 221.5 998.5 233.5 1008.5 244.5 1021.5 258.5 1028.5 275.5 1034.5 290.5 1041 300 1046.5 312.5 1061 320 1071.5 327.5 1082.5 330.5 1094.5 330.5 1102.5 338.5 1113.5 346.5 1127.5 337.5 1133.5 347.5 1146.5 342.5 1150.5 354.5 1164.5 346.5 1180.5 341.5 1199.5 333.5 1208.5 345.5 1218.5 352.5 1227.5 361.5 1235.5 373.5 1247.5 367.5 1247.5 376 1257.5 369.5 1265.5 376.5 1277.5 377.5 1285.5 370.5 1295.5 361.5 1307.5 354.5 1314.5 363.5 1323.5 371.5 1335.5 366.5 1343.5 358.5 1357.5 358.5 1365.5 348.5 1365.5 768 1 768 0 362"/><path class="cls-6" d="M-325,440l18,11,17-11,9,11,11.5,9.5H-246l15-10.25L-203,440l13,10.25,11.5,14.25,21,11,19-10,15.5-7.75,25.5-11.25L-86,440l14-10,5,22.75,8.5,6.75,19.5,16,21.5,11,36,19,23-13,14-8,11-4,26,4,8,4,11,10,18.5,7h28l8.5-9,9-5s11-2,17-1,12-3,12-3l10-4h12l11-1,11,3,8,6,23,1,14,1h13l13-6,9-3s15-8,19-7-3-5,4,1,25,16,25,16l12,1,18,2,11.5,8,13.5,4,13,7,29,13,16.5,6.25h31l17.5-6.25,9-3,13-6,10-3,34-7h27a47.41,47.41,0,0,1,13,0c7,1,12,1,16,0s10-3,10-3l13-6,9-2,18-5,14-3,17-5s8,5,10,0,14.5-3.62,14.5-3.62l14.5-7.38,15.5,7.38,27.5,5.62,8,5,13,4,15,8,14,14,17,3s-1,1,9,2,21-2,21-2l11-11s8-5,13-12S970,482.88,970,482.88l16.5-9.38,8-7h31L1041,471l-.5,343H-324Z" transform="translate(325 6)"/></g><path class="cls-7" d="M211.82,404.41v17.94h-1.09V385.74H222.8c6.44,0,11.07,3,11.07,9.36,0,4.32-2.08,7.8-7.64,8.74,4,.68,7.07,2.55,7.07,10.19v.68c0,4.83.1,6.65.47,7.64h-1.15c-.41-1.66-.36-4-.36-7.64v-.47c0-6.45-1.66-9.83-9.83-9.83Zm0-1H222c5.82,0,10.76-1.82,10.76-8.26,0-5.31-3.59-8.48-10-8.48h-11Z" transform="translate(325 6)"/><path class="cls-7" d="M241.25,409.14c0,8.06,4,12.8,9.63,12.8,5.09,0,7.54-2.76,9-6.14h1c-1.56,4.06-4.52,7.07-10,7.07-8,0-10.72-7.12-10.72-13.52,0-8.27,4.48-13.47,10.82-13.47,8,0,10.51,7,10.51,12a9.36,9.36,0,0,1-.06,1.3Zm19.3-.93c0-6.24-3.12-11.39-9.57-11.39-5.72,0-9.36,4.73-9.67,11.39Z" transform="translate(325 6)"/><path class="cls-7" d="M285.66,416.53a46.6,46.6,0,0,0,.26,5.82h-1a47.63,47.63,0,0,1-.26-5.77c-1.4,4.37-4.68,6.4-9.41,6.4-6.24,0-8.68-3.7-8.68-7.39,0-5.56,4.31-7.85,11.54-7.85,3,0,4.68,0,6.55.05v-3.64c0-3.74-1.56-7.33-7.69-7.33-5.72,0-7.7,2.86-8.06,6.81h-1c.21-3.74,2.29-7.75,9.15-7.75,6.19,0,8.68,3.44,8.68,8Zm-1-7.8c-1.76-.05-3.9-.05-6.6-.05-7,0-10.4,2.23-10.4,6.86,0,4,3.17,6.45,7.64,6.45,6,0,9.36-3.69,9.36-10.77Z" transform="translate(325 6)"/><path class="cls-7" d="M313.43,415.33c-1.56,5.46-5.09,7.65-9.83,7.65-6.76,0-10.92-5.2-10.92-13.52,0-8.17,4.58-13.58,11.18-13.58a9.41,9.41,0,0,1,9.57,7.86h-1.09c-1-3.91-3.54-6.92-8.58-6.92-6.66,0-10,5.93-10,12.64,0,7.17,3.27,12.58,9.88,12.58,4.47,0,7.33-2.39,8.73-6.71Z" transform="translate(325 6)"/><path class="cls-7" d="M316.91,396.51h4.84v-8.58h1v8.58h6.45v.93h-6.45V417c0,2.8.57,4.88,3.8,4.88a6.3,6.3,0,0,0,2.08-.26v.94a6.1,6.1,0,0,1-2.14.31c-3.43,0-4.78-1.51-4.78-6.13v-19.3h-4.84Z" transform="translate(325 6)"/><path class="cls-7" d="M346.81,385.74h1v16.59H372V385.74h1v36.61h-1V403.27H347.85v19.08h-1Z" transform="translate(325 6)"/><path class="cls-7" d="M382.48,383.3h1V388h-1Zm0,13.21h1v25.84h-1Z" transform="translate(325 6)"/><path class="cls-7" d="M411.86,421.47c0,8.27-2.6,12.95-11,12.95-6.19,0-9.21-3.54-9.78-7.44h1c.78,3.8,3.69,6.5,8.79,6.5,7.75,0,9.93-4.32,9.93-12.17v-5.72c-1.35,4.42-4.52,6.76-9.46,6.76-6.09,0-10.77-4.78-10.77-12.89,0-9,5.57-13.58,11.24-13.58s8.21,3.23,9.05,6.3c0-2.86.05-5.31.05-5.67h1c0,.62-.06,3.64-.06,7ZM391.69,409.4c0,7.65,4.36,12,9.72,12,7.75,0,9.47-6.13,9.47-12.42,0-5.15-.84-12.07-9.1-12.07C395.59,396.87,391.69,402.12,391.69,409.4Z" transform="translate(325 6)"/><path class="cls-7" d="M422,383.3v19.5a9.7,9.7,0,0,1,9.83-6.92c4.16,0,8.74,2.34,8.74,9.83v16.64h-1.1V405.82c0-5.15-2.6-8.95-7.8-8.95-6.34,0-9.67,4.79-9.67,11.08v14.4h-1V383.3Z" transform="translate(325 6)"/><path class="cls-7" d="M449.56,422.35V383.3h1v39.05Z" transform="translate(325 6)"/><path class="cls-7" d="M476.76,416.53a44.55,44.55,0,0,0,.26,5.82h-1a45.48,45.48,0,0,1-.26-5.77c-1.41,4.37-4.68,6.4-9.41,6.4-6.24,0-8.69-3.7-8.69-7.39,0-5.56,4.32-7.85,11.55-7.85,3,0,4.68,0,6.55.05v-3.64c0-3.74-1.56-7.33-7.7-7.33-5.72,0-7.69,2.86-8.06,6.81h-1c.21-3.74,2.29-7.75,9.15-7.75,6.19,0,8.69,3.44,8.69,8Zm-1-7.8c-1.77-.05-3.9-.05-6.61-.05-7,0-10.4,2.23-10.4,6.86,0,4,3.18,6.45,7.65,6.45,6,0,9.36-3.69,9.36-10.77Z" transform="translate(325 6)"/><path class="cls-7" d="M485.8,402.8c0-2.55-.05-5.72-.05-6.29h1c0,1.19.11,3.43,0,6.5a9.94,9.94,0,0,1,9.83-7.13c4.32,0,8.74,2.5,8.74,10v16.48h-1.09V406c0-5.15-2.5-9.1-7.8-9.1-6.19,0-9.68,5.2-9.68,11.29v14.19h-1Z" transform="translate(325 6)"/><path class="cls-7" d="M533.91,383.3v32.86c0,1.82.05,4.68.05,6.19h-1c-.05-.88-.1-3.74-.1-6.5-1.2,3.8-3.75,7.13-9.78,7.13-5.62,0-10.66-4.42-10.66-13.26,0-9.36,5.41-13.84,11.34-13.84,6.39,0,8.47,4.42,9.1,6.14V383.3Zm-20.39,26.31c0,7.8,4.11,12.38,9.62,12.38,6.4,0,9.83-4.37,9.83-13.11,0-7.64-3-12-9.31-12S513.52,402.33,513.52,409.61Z" transform="translate(325 6)"/><path class="cls-7" d="M541.55,415.49c.88,4.37,3.43,6.55,8.53,6.55s7.75-2.7,7.75-6-1.36-5.2-8-7-8-3.59-8-6.91,2.5-6.3,8-6.3c5.3,0,8.16,3.12,8.58,7h-1c-.42-2.86-2.29-6.08-7.59-6.08-5,0-6.92,2.6-6.92,5.25,0,3,1.4,4.63,7.33,6.14,6.76,1.71,8.69,4,8.69,7.75,0,4.31-3.49,7-8.84,7-6.09,0-8.84-2.92-9.57-7.49Z" transform="translate(325 6)"/></g></g></svg>